<svg width="274" height="59" viewBox="0 0 274 59" fill="none" xmlns="http://www.w3.org/2000/svg">
<path d="M122.42 49.16V18.36H128.58V21.22H128.8C129.269 20.604 129.841 20.0173 130.516 19.46C132.1 18.2867 133.875 17.7 135.84 17.7C138.773 17.7 141.223 18.8 143.188 21C145.183 23.1707 146.18 26.0307 146.18 29.58C146.18 33.1293 145.183 36.004 143.188 38.204C141.223 40.3747 138.773 41.46 135.84 41.46C133.875 41.46 132.1 40.8733 130.516 39.7C129.841 39.1427 129.269 38.556 128.8 37.94H128.58V49.16H122.42ZM130.164 24.74C129.108 25.884 128.58 27.4973 128.58 29.58C128.58 31.6627 129.108 33.2907 130.164 34.464C131.22 35.608 132.599 36.18 134.3 36.18C135.913 36.18 137.233 35.5933 138.26 34.42C139.287 33.2467 139.8 31.6333 139.8 29.58C139.8 27.5267 139.287 25.9133 138.26 24.74C137.233 23.5667 135.913 22.98 134.3 22.98C132.599 22.98 131.22 23.5667 130.164 24.74Z" fill="white"/>
<path d="M152.12 38.028C149.773 35.7107 148.6 32.8947 148.6 29.58C148.6 26.2653 149.773 23.464 152.12 21.176C154.467 18.8587 157.4 17.7 160.92 17.7C164.411 17.7 167.329 18.8587 169.676 21.176C172.052 23.464 173.24 26.2653 173.24 29.58C173.24 32.8947 172.052 35.7107 169.676 38.028C167.329 40.316 164.411 41.46 160.92 41.46C157.4 41.46 154.467 40.316 152.12 38.028ZM156.696 24.828C155.552 26.06 154.98 27.644 154.98 29.58C154.98 31.516 155.552 33.1 156.696 34.332C157.84 35.564 159.248 36.18 160.92 36.18C162.592 36.18 164 35.564 165.144 34.332C166.288 33.1 166.86 31.516 166.86 29.58C166.86 27.644 166.288 26.06 165.144 24.828C164 23.596 162.592 22.98 160.92 22.98C159.248 22.98 157.84 23.596 156.696 24.828Z" fill="white"/>
<path d="M176.776 40.8V10H182.936V35.52H187.996V40.8H176.776Z" fill="white"/>
<path d="M188.889 18.36H195.269L199.669 35.52H201.429L206.269 18.36H212.649L203.629 49.16H197.249L199.669 40.8H194.829L188.889 18.36Z" fill="white"/>
<path d="M213.301 23.64V18.36H216.161V13.52H222.321V18.36H228.657V23.64H222.321V35.52H228.921V40.8H216.161V23.64H213.301Z" fill="white"/>
<path d="M234.576 38.028C232.259 35.7107 231.1 32.8947 231.1 29.58C231.1 26.2653 232.259 23.464 234.576 21.176C236.923 18.8587 239.797 17.7 243.2 17.7C246.661 17.7 249.507 18.844 251.736 21.132C253.965 23.42 255.08 26.236 255.08 29.58V30.9H237.48C237.715 32.3667 238.375 33.6133 239.46 34.64C240.545 35.6667 241.792 36.18 243.2 36.18C244.755 36.18 246.089 35.74 247.204 34.86C247.644 34.4787 247.996 34.0387 248.26 33.54H254.86C254.361 35.036 253.628 36.356 252.66 37.5C250.313 40.14 247.16 41.46 243.2 41.46C239.797 41.46 236.923 40.316 234.576 38.028ZM237.7 27.16H248.48C248.245 25.9867 247.644 25.004 246.676 24.212C245.737 23.3907 244.579 22.98 243.2 22.98C241.821 22.98 240.648 23.376 239.68 24.168C238.712 24.96 238.052 25.9573 237.7 27.16Z" fill="white"/>
<path d="M258.803 40.8V18.36H264.963V21.66H265.183C265.447 20.956 265.843 20.34 266.371 19.812C267.574 18.5507 269.084 17.92 270.903 17.92H273.543V23.86H270.243C268.571 23.86 267.266 24.3147 266.327 25.224C265.418 26.104 264.963 27.336 264.963 28.92V40.8H258.803Z" fill="white"/>
<path opacity="0.55" d="M20.3397 58.9998C31.5699 58.9998 40.6795 49.8995 40.6795 38.6601C40.6795 27.4206 31.5699 18.3203 20.3397 18.3203C9.10955 18.3203 0 27.4299 0 38.6601C0 49.8902 9.10955 58.9998 20.3397 58.9998Z" fill="#68A7FF"/>
<path opacity="0.55" d="M90.5423 44.2198C96.5446 44.2198 101.404 39.3516 101.404 33.3585C101.404 27.3653 96.5354 22.4971 90.5423 22.4971C84.5492 22.4971 79.6809 27.3653 79.6809 33.3585C79.6809 39.3516 84.5492 44.2198 90.5423 44.2198Z" fill="#68A7FF"/>
<path opacity="0.8" d="M89.3805 21.8056C86.4669 18.8736 82.5115 17.214 78.3808 17.1863C74.7388 17.1679 71.2259 18.431 68.4322 20.7176L62.2178 24.6731C60.761 25.5951 59.0461 26.01 57.3311 25.8441C55.6162 25.6781 54.0026 24.9497 52.7579 23.7695L45.9718 17.3799C45.6399 16.9927 45.2988 16.6239 44.9484 16.2643C43.0675 14.3741 40.8362 12.862 38.3836 11.8294C35.9218 10.7967 33.2849 10.2619 30.6202 10.2527C25.2356 10.225 20.0631 12.3457 16.2367 16.1352C14.3466 18.0161 12.8345 20.2474 11.8018 22.7C10.7692 25.1618 10.2344 27.7987 10.2252 30.4634V30.6478C10.2252 35.4607 11.9309 40.1169 15.0381 43.7865C18.1453 47.4562 22.4604 49.8995 27.2088 50.6925C27.3839 50.7109 27.5591 50.7386 27.7435 50.7662C28.6655 50.8953 29.606 50.9598 30.5372 50.9598C33.2019 50.9598 35.8481 50.4343 38.3099 49.4109C40.7717 48.3874 43.0122 46.8937 44.9023 45.0128C45.1697 44.7454 45.4371 44.4688 45.686 44.183L50.3422 39.785C52.1678 38.07 54.5835 37.1296 57.0914 37.1664C59.5993 37.2125 61.9873 38.2268 63.7484 40.0063L65.6385 41.9056C65.8875 42.256 66.1548 42.5971 66.4407 42.9383C68.8287 45.7597 72.1387 47.6314 75.7807 48.2307C75.919 48.2491 76.0481 48.2676 76.1864 48.286C76.8964 48.3874 77.6155 48.4335 78.3347 48.4335C82.4654 48.4335 86.43 46.7923 89.3528 43.8695C92.2757 40.9467 93.9168 36.982 93.9168 32.8514C93.9353 28.7207 92.3125 24.7468 89.3989 21.8148L89.3805 21.8056Z" fill="url(#paint0_linear_1_269)"/>
<path d="M68.9118 13.9962C72.775 13.9962 75.9099 10.8614 75.9099 6.99812C75.9099 3.13486 72.775 0 68.9118 0C65.0485 0 61.9136 3.13486 61.9136 6.99812C61.9136 10.8614 65.0485 13.9962 68.9118 13.9962Z" fill="white"/>
<defs>
<linearGradient id="paint0_linear_1_269" x1="52.0572" y1="50.9506" x2="52.0572" y2="10.2435" gradientUnits="userSpaceOnUse">
<stop stop-color="white"/>
<stop offset="1" stop-color="#3686F8"/>
</linearGradient>
</defs>
</svg>
