<svg width="218" height="48" viewBox="0 0 218 48" fill="none" xmlns="http://www.w3.org/2000/svg">
<path d="M97.5627 39.1781V14.632H102.472V16.9113H102.647C103.021 16.4203 103.477 15.9528 104.015 15.5086C105.277 14.5735 106.691 14.106 108.258 14.106C110.595 14.106 112.547 14.9826 114.114 16.7359C115.703 18.4658 116.498 20.7451 116.498 23.5738C116.498 26.4024 115.703 28.6934 114.114 30.4467C112.547 32.1766 110.595 33.0415 108.258 33.0415C106.691 33.0415 105.277 32.574 104.015 31.6389C103.477 31.1947 103.021 30.7272 102.647 30.2363H102.472V39.1781H97.5627ZM103.734 19.7165C102.893 20.6282 102.472 21.914 102.472 23.5738C102.472 25.2335 102.893 26.531 103.734 27.4661C104.576 28.3778 105.675 28.8336 107.03 28.8336C108.316 28.8336 109.368 28.3661 110.186 27.431C111.005 26.4959 111.414 25.2102 111.414 23.5738C111.414 21.9374 111.005 20.6516 110.186 19.7165C109.368 18.7814 108.316 18.3139 107.03 18.3139C105.675 18.3139 104.576 18.7814 103.734 19.7165Z" fill="white"/>
<path d="M121.232 30.3064C119.362 28.4596 118.427 26.2154 118.427 23.5738C118.427 20.9321 119.362 18.6996 121.232 16.8762C123.102 15.0294 125.44 14.106 128.245 14.106C131.027 14.106 133.353 15.0294 135.223 16.8762C137.117 18.6996 138.064 20.9321 138.064 23.5738C138.064 26.2154 137.117 28.4596 135.223 30.3064C133.353 32.1298 131.027 33.0415 128.245 33.0415C125.44 33.0415 123.102 32.1298 121.232 30.3064ZM124.879 19.7867C123.967 20.7685 123.511 22.0309 123.511 23.5738C123.511 25.1167 123.967 26.379 124.879 27.3609C125.791 28.3427 126.913 28.8336 128.245 28.8336C129.578 28.8336 130.7 28.3427 131.612 27.3609C132.523 26.379 132.979 25.1167 132.979 23.5738C132.979 22.0309 132.523 20.7685 131.612 19.7867C130.7 18.8048 129.578 18.3139 128.245 18.3139C126.913 18.3139 125.791 18.8048 124.879 19.7867Z" fill="white"/>
<path d="M140.881 32.5155V7.96948H145.79V28.3077H149.823V32.5155H140.881Z" fill="white"/>
<path d="M150.535 14.632H155.62L159.126 28.3077H160.529L164.386 14.632H169.471L162.282 39.1781H157.198L159.126 32.5155H155.269L150.535 14.632Z" fill="white"/>
<path d="M169.99 18.8399V14.632H172.269V10.7747H177.178V14.632H182.228V18.8399H177.178V28.3077H182.438V32.5155H172.269V18.8399H169.99Z" fill="white"/>
<path d="M186.945 30.3064C185.099 28.4596 184.175 26.2154 184.175 23.5738C184.175 20.9321 185.099 18.6996 186.945 16.8762C188.816 15.0294 191.107 14.106 193.818 14.106C196.577 14.106 198.844 15.0177 200.621 16.8411C202.398 18.6646 203.286 20.9088 203.286 23.5738V24.6257H189.26C189.447 25.7946 189.973 26.7881 190.838 27.6063C191.703 28.4245 192.696 28.8336 193.818 28.8336C195.057 28.8336 196.121 28.483 197.009 27.7817C197.36 27.4778 197.64 27.1271 197.851 26.7297H203.111C202.713 27.9219 202.129 28.9739 201.357 29.8856C199.487 31.9896 196.974 33.0415 193.818 33.0415C191.107 33.0415 188.816 32.1298 186.945 30.3064ZM189.435 21.6451H198.026C197.839 20.7101 197.36 19.9269 196.589 19.2957C195.84 18.6412 194.917 18.3139 193.818 18.3139C192.72 18.3139 191.785 18.6295 191.013 19.2607C190.242 19.8919 189.716 20.6867 189.435 21.6451Z" fill="white"/>
<path d="M206.253 32.5155V14.632H211.162V17.2619H211.338C211.548 16.7009 211.864 16.2099 212.284 15.7892C213.243 14.7839 214.447 14.2813 215.896 14.2813H218V19.0152H215.37C214.038 19.0152 212.997 19.3776 212.249 20.1023C211.525 20.8036 211.162 21.7854 211.162 23.0478V32.5155H206.253Z" fill="white"/>
<path opacity="0.55" d="M16.2098 47.0201C25.1597 47.0201 32.4195 39.7676 32.4195 30.8103C32.4195 21.8531 25.1597 14.6006 16.2098 14.6006C7.25985 14.6006 0 21.8604 0 30.8103C0 39.7602 7.25985 47.0201 16.2098 47.0201Z" fill="#68A7FF"/>
<path opacity="0.55" d="M72.1577 35.2409C76.9413 35.2409 80.8137 31.3612 80.8137 26.5849C80.8137 21.8087 76.9339 17.929 72.1577 17.929C67.3815 17.929 63.5017 21.8087 63.5017 26.5849C63.5017 31.3612 67.3815 35.2409 72.1577 35.2409Z" fill="#68A7FF"/>
<path opacity="0.8" d="M71.2318 17.378C68.9098 15.0413 65.7575 13.7186 62.4656 13.6966C59.5631 13.6819 56.7635 14.6886 54.5371 16.5109L49.5845 19.6632C48.4235 20.398 47.0568 20.7287 45.69 20.5964C44.3233 20.4641 43.0374 19.8836 42.0454 18.9431L36.6372 13.8509C36.3727 13.5423 36.1008 13.2484 35.8216 12.9618C34.3226 11.4554 32.5444 10.2504 30.5898 9.42738C28.6279 8.6044 26.5264 8.17822 24.4028 8.17087C20.1115 8.14882 15.9893 9.83887 12.9398 12.8589C11.4335 14.3579 10.2284 16.1361 9.40544 18.0907C8.58246 20.0526 8.15627 22.1542 8.14893 24.2778V24.4247C8.14893 28.2604 9.50831 31.9711 11.9846 34.8957C14.4609 37.8202 17.8998 39.7674 21.684 40.3993C21.8236 40.414 21.9632 40.4361 22.1102 40.4581C22.845 40.561 23.5945 40.6124 24.3366 40.6124C26.4602 40.6124 28.5691 40.1936 30.531 39.378C32.493 38.5623 34.2785 37.3719 35.7849 35.8729C35.998 35.6599 36.2111 35.4394 36.4095 35.2116L40.1202 31.7066C41.5751 30.3399 43.5003 29.5904 45.499 29.6198C47.4976 29.6565 49.4008 30.4648 50.8043 31.883L52.3106 33.3967C52.509 33.6759 52.7221 33.9478 52.9499 34.2196C54.853 36.4681 57.491 37.9598 60.3934 38.4374C60.5037 38.4521 60.6065 38.4668 60.7167 38.4815C61.2825 38.5623 61.8557 38.5991 62.4288 38.5991C65.7208 38.5991 68.8804 37.2911 71.2097 34.9618C73.5391 32.6325 74.847 29.4728 74.847 26.1809C74.8617 22.889 73.5685 19.722 71.2465 17.3853L71.2318 17.378Z" fill="url(#paint0_linear_1_235)"/>
<path d="M54.9193 11.1543C57.9981 11.1543 60.4964 8.65598 60.4964 5.57716C60.4964 2.49833 57.9981 0 54.9193 0C51.8404 0 49.3421 2.49833 49.3421 5.57716C49.3421 8.65598 51.8404 11.1543 54.9193 11.1543Z" fill="white"/>
<defs>
<linearGradient id="paint0_linear_1_235" x1="41.4869" y1="40.6051" x2="41.4869" y2="8.16352" gradientUnits="userSpaceOnUse">
<stop stop-color="white"/>
<stop offset="1" stop-color="#3686F8"/>
</linearGradient>
</defs>
</svg>
